<svg width="60" height="60" viewBox="0 0 60 60" fill="none" xmlns="http://www.w3.org/2000/svg">
	<rect width="60" height="60" rx="30" fill="#304FFF" />
	<path d="M33 23.5C33 26.5376 30.5376 29 27.5 29C24.4624 29 22 26.5376 22 23.5C22 20.4624 24.4624 18 27.5 18C30.5376 18 33 20.4624 33 23.5Z" fill="white" />
	<path fill-rule="evenodd" clip-rule="evenodd" d="M27 31C29.3051 31 31.4077 31.8666 33 33.2917V34H29V40L18 40C18 35.0294 22.0294 31 27 31Z" fill="white" />
	<path d="M35 42H37V38L41 38V36H37V32H35V36H31V38H35V40V42Z" fill="white" />
</svg>
