<svg width="61" height="60" viewBox="0 0 61 60" fill="none" xmlns="http://www.w3.org/2000/svg">
	<rect x="0.333008" width="60" height="60" rx="30" fill="#304FFF"></rect>
	<path d="M31.733 43.9983L20.333 43.9987L20.3334 31.9855L31.7334 31.9851L31.733 43.9983Z" fill="white"></path>
	<path d="M33.253 30.6643L21.853 30.6647L26.933 26.5L38.333 26.4996L33.253 30.6643Z" fill="white"></path>
	<path d="M33.253 42.415V30.6643L38.333 26.4996V37L33.253 42.415Z" fill="white"></path>
	<path d="M33.833 29.0002L26.333 29.0005L26.3333 21.4129L33.8333 21.4127L33.833 29.0002Z" fill="white"></path>
	<path d="M34.833 20.5784L27.333 20.5787L31.333 17.0002L38.833 17L34.833 20.5784Z" fill="white"></path>
	<path d="M34.833 28.0002V20.5002L38.833 17V24.4218L34.833 28.0002Z" fill="white"></path>
	<path d="M37.7729 30.3855L32.9729 30.3857L35.5329 28.0002L40.3329 28L37.7729 30.3855Z" fill="white"></path>
	<path d="M37.7729 35.3332V30.3334L40.3329 28V32.9477L37.7729 35.3332Z" fill="white"></path>
</svg>
