<svg width="60" height="60" viewBox="0 0 60 60" fill="none" xmlns="http://www.w3.org/2000/svg">
<g clip-path="url(#clip0_2054_5)">
<circle cx="30" cy="30" r="30" fill="#0000FF"/>
<path d="M33.4051 49.1141C33.0046 49.1894 32.659 49.1028 32.3683 48.8543C32.0773 48.6058 31.9318 48.2604 31.9318 47.818C31.9318 47.5026 32.0348 47.2243 32.2408 46.9831C32.4468 46.7415 32.712 46.5899 33.0365 46.5282C34.2003 46.2915 35.3211 45.9515 36.3989 45.5082C37.4766 45.0648 38.4909 44.5143 39.4417 43.8565C39.6993 43.6823 39.9912 43.611 40.3175 43.6427C40.6437 43.6744 40.9149 43.8056 41.131 44.0364C41.4235 44.3518 41.5559 44.6969 41.5284 45.0716C41.5012 45.4466 41.3227 45.7495 40.993 45.9803C39.8473 46.7781 38.6425 47.428 37.3786 47.9299C36.1148 48.4318 34.7903 48.8266 33.4051 49.1141ZM44.2293 40.9365C43.9986 40.7204 43.8651 40.451 43.8288 40.1282C43.7929 39.8058 43.8665 39.5083 44.0495 39.2357C44.6992 38.2856 45.2419 37.2769 45.6776 36.2096C46.1133 35.1427 46.4611 34.0161 46.7211 32.83C46.7828 32.5146 46.9467 32.2521 47.2126 32.0426C47.4785 31.8331 47.7692 31.7284 48.0847 31.7284C48.5127 31.7284 48.8512 31.8734 49.1 32.1634C49.3489 32.4534 49.4318 32.7985 49.3489 33.1986C49.0969 34.5831 48.6999 35.9086 48.1579 37.1753C47.6159 38.4416 46.9552 39.6462 46.1758 40.7891C45.9364 41.1118 45.6286 41.2901 45.2525 41.3239C44.8768 41.3581 44.5357 41.229 44.2293 40.9365ZM48.0674 27.4328C47.7429 27.4328 47.4529 27.3281 47.1974 27.1186C46.9416 26.9091 46.7828 26.6466 46.7211 26.3312C46.4747 25.1461 46.1303 24.0215 45.688 22.9574C45.2454 21.8932 44.706 20.8826 44.0699 19.9254C43.8865 19.6529 43.8131 19.3554 43.8497 19.033C43.8863 18.7102 44.02 18.4336 44.2508 18.2032C44.5662 17.9108 44.9093 17.7867 45.2802 17.831C45.6511 17.8752 45.9562 18.0588 46.1957 18.3815C47.0253 19.6165 47.6844 20.8242 48.173 22.0048C48.6621 23.1853 49.0531 24.5046 49.3463 25.9626C49.431 26.3627 49.3473 26.7078 49.0953 26.9978C48.8433 27.2878 48.5007 27.4328 48.0674 27.4328ZM26.1524 49.1235C21.4863 48.2086 17.6278 45.9296 14.5769 42.2865C11.5256 38.6437 10 34.4084 10 29.5806C10 24.7322 11.526 20.4852 14.5779 16.8397C17.6299 13.1942 21.4891 10.9231 26.1555 10.0267C26.547 9.95067 26.888 10.0371 27.1787 10.286C27.4697 10.5349 27.6153 10.8698 27.6153 11.2909C27.6153 11.6063 27.5123 11.8916 27.3063 12.1467C27.1003 12.4019 26.8396 12.5603 26.5241 12.622C22.4941 13.4334 19.1705 15.4279 16.5532 18.6053C13.9359 21.7824 12.6272 25.4408 12.6272 29.5806C12.6272 33.7068 13.9359 37.3522 16.5532 40.5167C19.1705 43.6809 22.4941 45.6847 26.5241 46.5282C26.8396 46.5899 27.1003 46.7502 27.3063 47.0092C27.5123 47.2678 27.6153 47.5549 27.6153 47.8703C27.6153 48.2914 27.4717 48.6244 27.1845 48.8695C26.8969 49.1148 26.5529 49.1995 26.1524 49.1235ZM39.5223 15.3768C38.4965 14.7156 37.4497 14.1563 36.3821 13.699C35.3145 13.2421 34.2307 12.8947 33.1306 12.657C32.8148 12.5863 32.5522 12.4198 32.3427 12.1577C32.1332 11.8953 32.0285 11.6063 32.0285 11.2909C32.0285 10.8698 32.1681 10.5385 32.4473 10.297C32.7265 10.0551 33.0663 9.97664 33.4668 10.0617C34.7924 10.3269 36.0867 10.7137 37.3499 11.2219C38.6131 11.73 39.8309 12.3787 41.0034 13.1678C41.3335 13.4073 41.5191 13.7179 41.5603 14.0995C41.6014 14.4812 41.4825 14.8297 41.2037 15.1452C41.0008 15.3756 40.7375 15.5119 40.4137 15.554C40.0902 15.5959 39.7931 15.5368 39.5223 15.3768ZM29.795 38.5545C29.543 38.5545 29.2997 38.5107 29.0651 38.4233C28.8305 38.3354 28.6256 38.2178 28.4502 38.0703C26.2983 36.0937 24.6912 34.2533 23.6292 32.5492C22.5668 30.8455 22.0356 29.2617 22.0356 27.7977C22.0356 25.5196 22.7749 23.6231 24.2535 22.1083C25.7324 20.5935 27.5795 19.836 29.795 19.836C32.0104 19.836 33.8575 20.5935 35.3365 22.1083C36.815 23.6231 37.5543 25.5196 37.5543 27.7977C37.5543 29.2617 37.0233 30.8455 35.9612 32.5492C34.8988 34.2533 33.2917 36.0937 31.1397 38.0703C30.9598 38.2223 30.7571 38.341 30.5316 38.4264C30.3061 38.5118 30.0606 38.5545 29.795 38.5545ZM29.795 29.5822C30.383 29.5822 30.8772 29.3783 31.2777 28.9704C31.6782 28.563 31.8784 28.0653 31.8784 27.4772C31.8784 26.8979 31.6782 26.4082 31.2777 26.0081C30.8772 25.6076 30.383 25.4073 29.795 25.4073C29.2069 25.4073 28.7127 25.6076 28.3122 26.0081C27.9117 26.4082 27.7115 26.8979 27.7115 27.4772C27.7115 28.0653 27.9117 28.563 28.3122 28.9704C28.7127 29.3783 29.2069 29.5822 29.795 29.5822Z" fill="white"/>
</g>
<defs>
<clipPath id="clip0_2054_5">
<rect width="60" height="60" fill="white"/>
</clipPath>
</defs>
</svg>
