<svg width="60" height="60" viewBox="0 0 60 60" fill="none" xmlns="http://www.w3.org/2000/svg">
<g clip-path="url(#clip0_2054_5)">
<circle cx="30" cy="30" r="30" fill="#0000FF"/>
<path d="M30 48C27.51 48 25.17 47.5275 22.98 46.5825C20.79 45.6375 18.885 44.355 17.265 42.735C15.645 41.115 14.3625 39.21 13.4175 37.02C12.4725 34.83 12 32.49 12 30C12 27.51 12.4725 25.17 13.4175 22.98C14.3625 20.79 15.645 18.885 17.265 17.265C18.885 15.645 20.79 14.3625 22.98 13.4175C25.17 12.4725 27.51 12 30 12C32.49 12 34.83 12.4725 37.02 13.4175C39.21 14.3625 41.115 15.645 42.735 17.265C44.355 18.885 45.6375 20.79 46.5825 22.98C47.5275 25.17 48 27.51 48 30C48 32.49 47.5275 34.83 46.5825 37.02C45.6375 39.21 44.355 41.115 42.735 42.735C41.115 44.355 39.21 45.6375 37.02 46.5825C34.83 47.5275 32.49 48 30 48ZM28.065 45.255V41.565C27.015 41.565 26.13 41.175 25.41 40.395C24.69 39.615 24.33 38.7 24.33 37.65V35.67L15.105 26.445C14.955 27.045 14.85 27.6375 14.79 28.2225C14.73 28.8075 14.7 29.4 14.7 30C14.7 33.9 15.9675 37.305 18.5025 40.215C21.0375 43.125 24.225 44.805 28.065 45.255ZM41.295 40.395C42.615 38.955 43.6125 37.3425 44.2875 35.5575C44.9625 33.7725 45.3 31.92 45.3 30C45.3 26.82 44.43 23.9325 42.69 21.3375C40.95 18.7425 38.625 16.845 35.715 15.645V16.455C35.715 17.505 35.355 18.42 34.635 19.2C33.915 19.98 33.03 20.37 31.98 20.37H28.065V24.285C28.065 24.795 27.8625 25.215 27.4575 25.545C27.0525 25.875 26.595 26.04 26.085 26.04H22.35V30H33.96C34.47 30 34.89 30.195 35.22 30.585C35.55 30.975 35.715 31.425 35.715 31.935V37.65H37.65C38.52 37.65 39.285 37.905 39.945 38.415C40.605 38.925 41.055 39.585 41.295 40.395Z" fill="#E3E3E3"/>
<path d="M21 6C24.3025 6 27 8.64906 27 11.9414C26.9999 15.1536 25.2444 17.4188 21.6201 20.2842C21.2566 20.5716 20.7434 20.5716 20.3799 20.2842C16.7556 17.4188 15.0001 15.1536 15 11.9414C15 8.64906 17.6975 6 21 6Z" fill="#E3E3E3" stroke="#0000FF" stroke-width="2" stroke-linejoin="round"/>
</g>
<defs>
<clipPath id="clip0_2054_5">
<rect width="60" height="60" fill="white"/>
</clipPath>
</defs>
</svg>
