<svg width="60" height="60" viewBox="0 0 60 60" fill="none" xmlns="http://www.w3.org/2000/svg">
	<rect width="60" height="60" rx="30" fill="#304FFF" />
	<path d="M33.0558 25.4042L32.3479 24.6526C31.4146 23.6615 30.6422 23.3276 30.0233 23.3276C29.6257 23.3276 29.3922 23.4329 29.2338 23.5724L29.2324 23.5736C29.0477 23.7356 29.0233 23.848 29.0233 23.9429C29.0233 23.9783 29.0338 24.1047 29.2482 24.3362L29.2561 24.3447L29.2638 24.3534C29.4214 24.5317 29.8806 24.8462 30.8437 25.2511L30.8489 25.2533C32.5846 25.9947 33.8859 26.6715 34.6443 27.2911C35.3969 27.906 35.9825 28.6514 36.3906 29.5213C36.8034 30.4012 36.9999 31.3685 36.9999 32.4051C36.9999 33.4521 36.7876 34.4396 36.3535 35.3536C35.9314 36.2422 35.3687 36.9848 34.65 37.5453C34.0828 37.9877 33.3686 38.3174 32.5438 38.5598V42H29V41H31.5438V37.7814C32.6276 37.5484 33.458 37.2068 34.035 36.7568C34.612 36.3068 35.0837 35.696 35.4502 34.9245C35.8167 34.153 35.9999 33.3132 35.9999 32.4051C35.9999 31.497 35.8284 30.6773 35.4853 29.946C35.1422 29.2147 34.651 28.5879 34.0116 28.0655C33.3722 27.5432 32.1871 26.9123 30.4561 26.173C29.4814 25.7631 28.8342 25.3774 28.5145 25.0157C28.1871 24.6621 28.0233 24.3045 28.0233 23.9429C28.0233 23.5169 28.2066 23.1433 28.573 22.8218C28.9473 22.4923 29.4307 22.3276 30.0233 22.3276C30.9017 22.3276 31.7891 22.7443 32.6853 23.5779C32.8153 23.6988 32.9455 23.8285 33.0759 23.967L35.3333 21.7007C35.1428 21.5023 34.959 21.3192 34.7818 21.1514C34.727 21.0996 34.6729 21.0492 34.6195 21.0003C34.1938 20.611 33.8079 20.3141 33.4619 20.1095C32.9395 19.7961 32.3001 19.547 31.5438 19.3622V18H29V17H32.5438V18.6086C33.067 18.7817 33.5457 18.994 33.9736 19.2504C34.6164 19.6309 35.3121 20.2346 36.0547 21.0083L36.7318 21.7137L33.0558 25.4042Z" fill="white" />
	<path d="M34.3333 22.7007L32.076 24.967C31.0468 23.874 30.0292 23.3276 29.0234 23.3276C28.4308 23.3276 27.9474 23.4923 27.5731 23.8218C27.2066 24.1433 27.0234 24.5169 27.0234 24.9429C27.0234 25.3045 27.1871 25.6621 27.5146 26.0157C27.8343 26.3774 28.4815 26.7631 29.4561 27.173C31.1871 27.9123 32.3723 28.5432 33.0117 29.0655C33.6511 29.5879 34.1423 30.2147 34.4854 30.946C34.8285 31.6773 35 32.497 35 33.4051C35 34.3132 34.8168 35.153 34.4503 35.9245C34.0838 36.696 33.6121 37.3068 33.0351 37.7568C32.4581 38.2068 31.6277 38.5484 30.5439 38.7814V42H28.345V38.8538C27.3236 38.7332 26.4542 38.468 25.7368 38.0582C24.7544 37.4956 23.8421 36.7483 23 35.816L25.2222 33.4654C26.6491 35.0325 28.0292 35.816 29.3626 35.816C30.0409 35.816 30.6218 35.5749 31.1053 35.0928C31.5965 34.6026 31.8421 34.028 31.8421 33.369C31.8421 32.8145 31.6862 32.3283 31.3743 31.9104C31.0546 31.4925 30.4386 31.0666 29.5263 30.6326C27.6706 29.7486 26.4152 29.0494 25.7602 28.5351C25.1053 28.0128 24.614 27.4301 24.2865 26.7872C23.9669 26.1363 23.807 25.4451 23.807 24.7138C23.807 23.5003 24.2359 22.4637 25.0936 21.6038C25.9513 20.7358 27.0351 20.2697 28.345 20.2055V19H30.5439V20.3622C31.3002 20.547 31.9396 20.7961 32.462 21.1095C32.9922 21.423 33.616 21.9534 34.3333 22.7007Z" fill="white" />
</svg>
