<?xml version="1.0" encoding="utf-8"?>
<!-- Generator: Adobe Illustrator 17.1.0, SVG Export Plug-In . SVG Version: 6.00 Build 0)  -->
<!DOCTYPE svg PUBLIC "-//W3C//DTD SVG 1.1//EN" "http://www.w3.org/Graphics/SVG/1.1/DTD/svg11.dtd">
<svg version="1.1" id="Layer_1" xmlns="http://www.w3.org/2000/svg" xmlns:xlink="http://www.w3.org/1999/xlink" x="0px" y="0px"
	 viewBox="0 0 1169 598" enable-background="new 0 0 1169 598" xml:space="preserve">
<g>
	<defs>
		<rect id="SVGID_1_" x="12" y="-6.9" width="1145.1" height="585.8"/>
	</defs>
	<clipPath id="SVGID_2_">
		<use xlink:href="#SVGID_1_"  overflow="visible"/>
	</clipPath>
	<g clip-path="url(#SVGID_2_)">
		<path fill="#FFFFFF" d="M229.8,192.1H73.1L12.3,420.3l187.1-0.1c60.4-0.1,113.3-41,128.9-99.5
			C345.5,255.8,296.7,192.1,229.8,192.1z M239.9,310c-5.8,21.9-25.5,37.1-48.1,37.2l-68.8,0.2l22.1-82.2l60.4,0
			C228.9,265.2,245.9,287.4,239.9,310z"/>
		<path fill="#FFFFFF" d="M744.3,192.4l-86.4,89.9l-45.5-90.1h-90.1l-33.9,125.2c-4.9,18-21.2,30.5-39.9,30.5
			c-19.4,0-33.5-18.4-28.5-37.1l31.7-118.6h-90.1l-29.5,109.8c-16,59.7,29,118.4,90.8,118.4h26c60.3,0,113-40.5,128.7-98.7l9.5-35.5
			l48.7,79.3l83.7-79.3l-36.2,134.2h90.1l38.4-143.3C795.6,243.2,772.3,214.6,744.3,192.4z M816,261.5L816,261.5
			c-14.5-26.7-33.3-50.1-55.3-69.4C782.7,211.4,801.6,234.8,816,261.5z"/>
		<path fill="#FFFFFF" d="M929.9,366.5h81.2l14.5,53.9h90.1l-61.2-228.2h-90.1l-36,43C940.9,279.4,940.8,324.5,929.9,366.5z
			 M842.7,337.6L842.7,337.6c5,27.8,5.3,55.8,1.2,82.8C847.9,393.3,847.7,365.4,842.7,337.6z M998.2,318.5h-43.1l32.8-39.2
			L998.2,318.5z"/>
		<path fill="#FFFFFF" d="M1113.4,240.5v-35.6h13.5c7.5,0,12.1,4.2,12.1,10.8c0,4.1-2.9,7.2-6,8.2c3.2,0.6,5,2.5,5.4,6.2l1,10.5
			h-4.4l-0.9-10c-0.2-3-1.9-4.3-6.1-4.3h-10.3v14.3H1113.4z M1127.4,222c4.3,0,7.1-2.3,7.1-6.4c0-4.1-2.7-6.5-7.6-6.5h-9.2V222
			H1127.4z"/>
		<path fill="#FFFFFF" d="M1125.7,192.1c-17.3,0-31.3,14-31.3,31.3c0,17.3,14,31.3,31.3,31.3c17.3,0,31.3-14,31.3-31.3
			C1157,206.1,1143,192.1,1125.7,192.1z M1125.7,249.8c-14.5,0-26.3-11.8-26.3-26.3c0-14.5,11.8-26.3,26.3-26.3
			c14.5,0,26.3,11.8,26.3,26.3C1152,238,1140.2,249.8,1125.7,249.8z"/>
		<path fill="#9B9B9B" d="M739.9,545.4c-20.6,0-32.6-16-32.6-38.1c0-21.9,12.2-38.3,32.8-38.3c17.5,0,26.5,10.5,29.2,24.1l-9.3,0.6
			c-1.9-9.5-7.5-16-20-16c-16.7,0-23.6,13.8-23.6,29.6c0,16.7,7.2,29.4,23.6,29.4c13,0,21-9.9,21.2-21.5h-21v-8.4h29.2v36.9h-6.6
			l-0.4-12.2C758.9,539.7,749.9,545.4,739.9,545.4z"/>
		<path fill="#9B9B9B" d="M642.9,543.8v-73h12.5l36.1,64.2v-64.2h8.8v73h-13.2l-35.5-63v63H642.9z"/>
		<path fill="#9B9B9B" d="M624,543.8v-73h8.8v73H624z"/>
		<path fill="#9B9B9B" d="M563.3,543.8v-73h26.2c16.3,0,25.8,8.2,25.8,22.1c0,14.1-9.6,22.5-25.8,22.5h-17.4v28.4H563.3z
			 M589.5,506.7c11,0,16.6-4.7,16.6-13.9c0-8.9-5.6-13.5-16.6-13.5h-17.4v27.4H589.5z"/>
		<path fill="#9B9B9B" d="M502.5,543.8v-73h26.2c16.3,0,25.8,8.2,25.8,22.1c0,14.1-9.6,22.5-25.8,22.5h-17.4v28.4H502.5z
			 M528.8,506.7c11,0,16.6-4.7,16.6-13.9c0-8.9-5.6-13.5-16.6-13.5h-17.4v27.4H528.8z"/>
		<path fill="#9B9B9B" d="M483.6,543.8v-73h8.8v73H483.6z"/>
		<path fill="#9B9B9B" d="M419.1,543.8v-73h8.8v32h36.7v-32h8.8v73h-8.8v-32.4h-36.7v32.4H419.1z"/>
		<path fill="#9B9B9B" d="M386.6,545.4c-16.9,0-27.7-10.2-28.9-25l9.3-0.6c1.4,10.9,8.1,17,19.9,17c10.2,0,16.1-4,16.1-11.5
			c0-6.8-3.4-10.9-20.9-15.2c-16.9-4.2-22.8-9.3-22.8-20.2c0-12.2,9.3-20.8,24.3-20.8c16,0,25.5,9.9,27.2,23.2l-9.3,0.6
			c-1.2-8.8-7.2-15.2-18.1-15.2c-9.1,0-14.8,4.7-14.8,11.7c0,6.9,3.7,9.4,19.1,13.2c18.3,4.5,24.6,11.5,24.6,22
			C412.3,537.4,401.6,545.4,386.6,545.4z"/>
		<path fill="#EF791A" d="M874.3,256.4c33.7,94.9,5.5,196.9-63.5,261.5c37.9-63.6,48.2-143.1,21.4-218.4
			C784.7,165.7,638.1,95.9,504.8,143.6c-5.2,1.9-10.3,3.9-15.3,6c21.2-17.5,45.8-31.7,73.1-41.5C689.6,62.6,829.1,129.1,874.3,256.4
			z"/>
		<path fill="#F59A17" d="M916,226c28.5,86,6.8,176.6-49,239.8c33.9-60.9,43.1-135.3,19.5-206.7C841.8,124.4,696.7,51.4,562.4,96.3
			c-6.4,2.1-12.6,4.5-18.7,7c19.1-13.5,40.5-24.5,63.9-32.3C735.4,28.3,873.5,97.7,916,226z"/>
	</g>
</g>
</svg>
