<svg width="60" height="60" viewBox="0 0 60 60" fill="none" xmlns="http://www.w3.org/2000/svg">
<g clip-path="url(#clip0_2054_5)">
<circle cx="30" cy="30" r="30" fill="#0000FF"/>
<path d="M30 43.6175C32.8114 42.713 35.1525 40.9978 37.0233 38.4717C38.8944 35.9455 39.9885 33.1217 40.3054 30H30V16.485L19.9304 20.2317C19.8238 20.2744 19.741 20.3386 19.6821 20.4242C19.6235 20.5097 19.5942 20.6058 19.5942 20.7125V28.3762C19.5942 28.6787 19.5987 28.9429 19.6079 29.1687C19.6171 29.3946 19.646 29.6717 19.6946 30H30V43.6175ZM30 45.6183C29.8497 45.6183 29.7033 45.6044 29.5608 45.5767C29.4183 45.5489 29.2749 45.5072 29.1304 45.4517C25.5557 44.1789 22.7236 41.9494 20.6342 38.7633C18.5447 35.5769 17.5 32.1089 17.5 28.3592V20.7117C17.5 20.1639 17.6592 19.6654 17.9775 19.2162C18.2958 18.7674 18.7011 18.4435 19.1933 18.2446L29.0867 14.5621C29.4022 14.4451 29.7067 14.3867 30 14.3867C30.2933 14.3867 30.5978 14.4451 30.9133 14.5621L40.8067 18.2446C41.2989 18.4435 41.7042 18.7674 42.0225 19.2162C42.3408 19.6654 42.5 20.1639 42.5 20.7117V28.3592C42.5 32.1089 41.4553 35.5769 39.3658 38.7633C37.2764 41.9494 34.4443 44.1789 30.8696 45.4517C30.7251 45.5072 30.5817 45.5489 30.4392 45.5767C30.2967 45.6044 30.1503 45.6183 30 45.6183Z" fill="white"/>
</g>
<defs>
<clipPath id="clip0_2054_5">
<rect width="60" height="60" fill="white"/>
</clipPath>
</defs>
</svg>
