<svg width="60" height="60" viewBox="0 0 60 60" fill="none" xmlns="http://www.w3.org/2000/svg">
	<rect width="60" height="60" rx="30" fill="#304FFF" />
	<path d="M23.4 42.4987L12 42.4991L12.0004 30.4859L23.4004 30.4855L23.4 42.4987Z" fill="white"/>
	<path d="M24.92 29.1647L13.52 29.1651L18.6 25.0004L30 25L24.92 29.1647Z" fill="white"/>
	<path d="M24.92 40.9154V29.1647L30 25V35.5004L24.92 40.9154Z" fill="white"/>
	<path d="M45 29L48 35L45 41H43L46 35L43 29H45Z" fill="white"/>
	<path d="M45.9996 35.9999L35 36L35.0004 34L46 34L45.9996 35.9999Z" fill="white"/>
	<path d="M33.9409 26.7415C34.0105 26.7802 34.0899 26.7966 34.1688 26.7885C34.2477 26.7803 34.3224 26.7481 34.3829 26.696L34.385 26.7023C34.8577 26.2753 35.3351 25.8548 35.817 25.4409C35.9698 25.3121 35.943 25.1112 35.8252 24.9362L35.7144 24.7829C35.4094 24.365 35.1209 23.9688 35.1209 23.175V20.214L35.1216 19.913C35.1285 18.7769 35.134 17.7395 34.2975 16.9457C33.5815 16.2457 32.3932 16 31.4837 16C29.7074 16 27.7205 16.6734 27.3005 18.912C27.2565 19.1451 27.4272 19.2704 27.5794 19.3054L29.3956 19.5119C29.5663 19.5042 29.6896 19.3397 29.7212 19.1647C29.8761 18.3947 30.5095 18.0237 31.2221 18.0237C31.6076 18.0237 32.0441 18.1679 32.27 18.5179C32.5061 18.8679 32.5027 19.3341 32.4992 19.7527L32.4985 19.8941V20.1342C32.3219 20.1538 32.1452 20.1725 31.9684 20.1902C30.9832 20.291 29.841 20.4072 28.9852 20.7908C27.8128 21.3039 26.9928 22.3539 26.9928 23.8953C26.9928 25.87 28.2148 26.8563 29.7887 26.8563C31.1161 26.8563 31.8438 26.5378 32.8689 25.4752C32.919 25.5485 32.9649 25.6173 33.0066 25.6817C33.2524 26.0527 33.4128 26.2956 33.9409 26.7415ZM32.4985 22.167C32.4985 22.8628 32.4999 23.4536 32.1488 24.0801C31.8479 24.6142 31.3743 24.9432 30.8558 24.9432C30.1384 24.9432 29.7178 24.3881 29.7178 23.5677C29.7178 21.9486 31.145 21.6546 32.4992 21.6546L32.4978 22.0655L32.4985 22.167ZM31.4865 30C33.2627 30 35.3261 29.4316 36.7499 28.3641C36.9867 28.1863 36.7843 27.9217 36.5433 28.026C34.9893 28.6912 33.3213 29.0378 31.6352 29.0459C29.3006 29.0459 27.0327 28.3949 25.2021 27.3106C25.0417 27.2154 24.9267 27.3827 25.0554 27.5052C26.7525 29.0641 28.9907 30 31.4865 30Z" fill="white"/>
	<path d="M35.6944 27.6165C36.1584 27.5612 37.1629 27.4415 37.3419 27.6753H37.3481C37.5305 27.9119 37.1457 28.8898 36.9736 29.3252C36.9164 29.4582 37.0286 29.5107 37.1457 29.4113C37.9099 28.7617 38.1061 27.4002 37.9505 27.2042C37.7942 27.0082 36.4634 26.8416 35.6455 27.4233C35.5202 27.5122 35.5408 27.6354 35.6813 27.6186L35.6944 27.6165Z" fill="white"/>
</svg>