<svg width="61" height="60" viewBox="0 0 61 60" fill="none" xmlns="http://www.w3.org/2000/svg">
	<rect x="0.333252" width="60" height="60" rx="30" fill="#304FFF" />
	<path d="M37.7333 42.9983L26.3333 42.9987L26.3336 30.9855L37.7336 30.9851L37.7333 42.9983Z" fill="white"/>
	<path d="M39.2533 29.6643L27.8533 29.6647L32.9333 25.5L44.3333 25.4996L39.2533 29.6643Z" fill="white"/>
	<path d="M39.2533 41.415V29.6643L44.3333 25.4996V36L39.2533 41.415Z" fill="white"/>
	<path d="M39.8333 28.0002L32.3333 28.0005L32.3335 20.4129L39.8335 20.4127L39.8333 28.0002Z" fill="white"/>
	<path d="M40.8333 19.5784L33.3333 19.5787L37.3333 16.0002L44.8333 16L40.8333 19.5784Z" fill="white"/>
	<path d="M40.8333 27.0002V19.5002L44.8333 16V23.4218L40.8333 27.0002Z" fill="white"/>
	<path d="M43.7731 29.3855L38.9731 29.3857L41.5331 27.0002L46.3331 27L43.7731 29.3855Z" fill="white"/>
	<path d="M43.7731 34.3332V29.3334L46.3331 27V31.9477L43.7731 34.3332Z" fill="white"/>
	<path d="M22.3333 25H31.3333V27H22.3333V25Z" fill="white"/>
	<path d="M14.3333 41H24.3333V43H14.3333V41Z" fill="white"/>
	<path d="M26.3333 21H31.3333V23H26.3333V21Z" fill="white"/>
	<path d="M19.3333 37H24.3333V39H19.3333V37Z" fill="white"/>
</svg>