<svg width="61" height="60" viewBox="0 0 61 60" fill="none" xmlns="http://www.w3.org/2000/svg">
	<rect x="0.666504" width="60" height="60" rx="30" fill="#304FFF"/>
	<path d="M25.6902 40.835L13.6665 40.8354L13.6669 28.1669L25.6906 28.1665L25.6902 40.835Z" fill="white"/>
	<path d="M27.2934 26.7737L15.2697 26.7741L20.6276 22.3822L32.6513 22.3818L27.2934 26.7737Z" fill="white"/>
	<path d="M27.2934 39.1653V26.7737L32.6513 22.3818V33.4549L27.2934 39.1653Z" fill="white"/>
	<path d="M44.5024 31.3455L47.6665 37.6727L44.5024 44H42.3929L45.5571 37.6727L42.3929 31.3455H44.5024Z" fill="white"/>
	<path d="M45.5567 38.7272L33.9552 38.7273L33.9556 36.6182L45.5571 36.6182L45.5567 38.7272Z" fill="white"/>
	<path d="M43.7948 17.7903L41.356 22.7605L38.9128 17.7903H37.244L37.7291 18.7219C37.2173 17.8627 36.1314 17.5461 34.9121 17.5461C33.4969 17.5461 31.8903 17.9396 31.7301 19.4953H33.2299C33.2922 18.8712 33.9285 18.5094 34.7874 18.5094C35.9445 18.5094 36.6121 18.9435 36.6121 20.0018V20.1556C36.0469 20.1556 35.366 20.1601 34.7563 20.1736C32.8694 20.2143 31.6589 20.6259 31.3429 21.7294C31.3874 21.4942 31.4097 21.25 31.4097 20.9967C31.4097 18.6405 29.6429 17.5506 28.0542 17.5506C27.1063 17.5506 26.1406 17.7994 25.4419 18.6451V15H24.0134V22.6655C24.0134 23.1313 23.9867 23.7011 23.9644 24.1624H25.3662C25.3974 23.8775 25.4152 23.579 25.4152 23.2805C26.0204 24.0313 26.9906 24.4066 28.0275 24.4066C29.6696 24.4066 30.9157 23.4162 31.2895 21.9555C31.2673 22.0821 31.2584 22.2178 31.2584 22.3625C31.2584 23.4524 32.1974 24.3976 33.9552 24.3976C35.139 24.3976 35.9935 24.1398 36.71 23.2444C36.71 23.5428 36.7233 23.8458 36.7589 24.1579H38.0851C38.0539 23.7871 38.0406 23.3665 38.0406 22.9459V19.9792C38.0406 19.5586 37.9649 19.2013 37.827 18.9028L40.5639 24.1534L39.2956 26.6H40.8932L45.3079 17.7903H43.7948ZM27.6715 23.4117C26.3542 23.4117 25.4374 22.4394 25.4374 20.9786C25.4374 19.5134 26.3542 18.5456 27.6715 18.5456C28.9977 18.5456 29.9055 19.5134 29.9055 20.9786C29.9055 22.4394 28.9977 23.4117 27.6715 23.4117ZM36.6121 21.2726C36.6121 22.6293 35.8155 23.4614 34.3157 23.4614C33.1987 23.4614 32.7581 22.8554 32.7581 22.2947C32.7581 21.4309 33.5636 21.1912 34.8587 21.1505C35.4416 21.1279 36.0869 21.1234 36.6121 21.1234V21.2726ZM18.2814 21.345H24.0134V20.9605C24.0134 18.6225 22.5403 17.5506 20.5244 17.5506C17.9966 17.5506 16.8306 18.9435 16.8306 21.06C16.8306 22.9821 17.9566 24.4066 20.5021 24.4066C21.8995 24.4066 23.5283 23.8775 23.8131 22.3218H22.3401C21.806 23.9408 18.4372 23.9815 18.2814 21.345ZM22.5092 20.3772H18.3081C18.6152 17.8175 22.4068 17.9034 22.5092 20.3772Z" fill="white"/>
</svg>