<svg width="61" height="60" viewBox="0 0 61 60" fill="none" xmlns="http://www.w3.org/2000/svg">
	<rect x="0.666504" width="60" height="60" rx="30" fill="#304FFF" />
	<path fill="white" fill-rule="evenodd" clip-rule="evenodd" d="M40.6665 24.4545C40.6665 30.2284 30.6665 44 30.6665 44C30.6665 44 20.6665 30.2284 20.6665 24.4545C20.6665 18.6807 25.1437 14 30.6665 14C36.1894 14 40.6665 18.6807 40.6665 24.4545ZM30.6665 31C34.5325 31 37.6665 27.866 37.6665 24C37.6665 20.134 34.5325 17 30.6665 17C26.8005 17 23.6665 20.134 23.6665 24C23.6665 27.866 26.8005 31 30.6665 31ZM31.6665 23V19H29.6665V25H33.6665V23H31.6665Z" />
</svg>