<svg width="60" height="60" viewBox="0 0 60 60" fill="none" xmlns="http://www.w3.org/2000/svg">
<g clip-path="url(#clip0_2054_5)">
<circle cx="30" cy="30" r="30" fill="#0000FF"/>
<path d="M30.2553 44C29.8521 44 29.5143 43.8648 29.2421 43.5944C28.9702 43.3242 28.8343 42.9889 28.8343 42.5882C28.8343 42.1876 28.9702 41.8522 29.2421 41.5821C29.5143 41.3117 29.8521 41.1765 30.2553 41.1765H42.6801C42.8379 41.1765 42.9747 41.1282 43.0903 41.0315C43.2055 40.9352 43.2632 40.8086 43.2632 40.6518V27.4861C43.2632 23.8877 41.9672 20.8584 39.3752 18.3981C36.7835 15.9379 33.6584 14.7078 30 14.7078C26.3416 14.7078 23.2165 15.9379 20.6248 18.3981C18.0328 20.8584 16.7368 23.8877 16.7368 27.4861V37.1581C16.7368 37.5587 16.6007 37.8943 16.3285 38.1647C16.0566 38.4348 15.7191 38.5699 15.3158 38.5699C14.4073 38.5699 13.6276 38.2557 12.9767 37.6273C12.3256 36.9986 12 36.2329 12 35.3304V31.6744C12 31.0638 12.1749 30.5045 12.5248 29.9962C12.8747 29.4883 13.3314 29.08 13.8947 28.7713L13.9824 26.3675C14.1377 24.3186 14.6733 22.4205 15.5891 20.6734C16.5049 18.9263 17.6793 17.4053 19.1124 16.1106C20.5457 14.8158 22.2 13.8071 24.0752 13.0842C25.9506 12.3614 27.9256 12 30 12C32.0744 12 34.0445 12.3614 35.9102 13.0842C37.7758 13.8071 39.4301 14.811 40.8729 16.096C42.3158 17.381 43.4902 18.8971 44.3962 20.6442C45.3022 22.3917 45.8427 24.2897 46.0176 26.3384L46.1053 28.6951C46.6566 28.9533 47.1103 29.3225 47.4662 29.8028C47.8221 30.2831 48 30.8188 48 31.4099V35.6127C48 36.2038 47.8221 36.7395 47.4662 37.2198C47.1103 37.7001 46.6566 38.0693 46.1053 38.3275V40.6518C46.1053 41.5782 45.7707 42.3678 45.1015 43.0207C44.4321 43.6736 43.6249 44 42.6801 44H30.2553ZM24.6801 31.3304C24.2162 31.3304 23.8208 31.1741 23.4939 30.8616C23.1674 30.5492 23.0042 30.1624 23.0042 29.7012C23.0042 29.2403 23.1674 28.8507 23.4939 28.5322C23.8208 28.2135 24.2162 28.0541 24.6801 28.0541C25.1443 28.0541 25.5396 28.2135 25.8662 28.5322C26.193 28.8507 26.3564 29.2403 26.3564 29.7012C26.3564 30.1624 26.193 30.5492 25.8662 30.8616C25.5396 31.1741 25.1443 31.3304 24.6801 31.3304ZM35.3199 31.3304C34.8557 31.3304 34.4604 31.1741 34.1338 30.8616C33.807 30.5492 33.6436 30.1624 33.6436 29.7012C33.6436 29.2403 33.807 28.8507 34.1338 28.5322C34.4604 28.2135 34.8557 28.0541 35.3199 28.0541C35.7838 28.0541 36.1792 28.2135 36.5061 28.5322C36.8326 28.8507 36.9958 29.2403 36.9958 29.7012C36.9958 30.1624 36.8326 30.5492 36.5061 30.8616C36.1792 31.1741 35.7838 31.3304 35.3199 31.3304ZM19.335 28.3765C19.1383 25.3045 20.1002 22.6758 22.2207 20.4904C24.3412 18.3053 26.9659 17.2127 30.0947 17.2127C32.7231 17.2127 35.0422 18.0206 37.0522 19.6362C39.0625 21.2519 40.2826 23.3435 40.7124 25.9111C38.0209 25.8797 35.5341 25.1776 33.2518 23.8047C30.9696 22.4315 29.2176 20.5492 27.9958 18.1576C27.5149 20.4984 26.5069 22.5677 24.9718 24.3656C23.4365 26.1636 21.5575 27.5005 19.335 28.3765Z" fill="white"/>
</g>
<defs>
<clipPath id="clip0_2054_5">
<rect width="60" height="60" fill="white"/>
</clipPath>
</defs>
</svg>
